<svg width="52" height="28" viewBox="0 0 52 28" fill="none" xmlns="http://www.w3.org/2000/svg">
<path d="M48.8719 11.3636L7.94493 11.3636L15.6085 3.87967C16.5174 2.99225 16.5174 1.55316 15.6085 0.665579C15.1541 0.221941 14.5584 -2.86102e-05 13.9628 -2.86102e-05C13.3672 -2.86102e-05 12.7715 0.221941 12.3173 0.66573L0.680878 12.0294C-0.228001 12.9168 -0.228001 14.3559 0.680878 15.2435L12.3173 26.6071C13.226 27.4946 14.6996 27.4946 15.6085 26.6071C16.5174 25.7197 16.5174 24.2806 15.6085 23.393L7.94493 15.9091L48.8719 15.9091C50.1572 15.9091 51.1992 14.8915 51.1992 13.6364C51.1992 12.3812 50.1572 11.3636 48.8719 11.3636Z" fill="black"/>
</svg>
